<?xml version="1.0" encoding="UTF-8"?>
<svg xmlns="http://www.w3.org/2000/svg" xmlns:xlink="http://www.w3.org/1999/xlink" width="75pt" height="59pt" viewBox="0 0 75 59" version="1.1">
<g id="surface1">
<path style=" stroke:none;fill-rule:evenodd;fill:rgb(0%,65.098572%,31.399536%);fill-opacity:1;" d="M 57.28125 29.136719 L 71.097656 29.136719 L 71.097656 24.480469 L 66.492188 24.480469 L 66.492188 26.324219 L 63.097656 26.324219 L 65.183594 22.542969 L 71.097656 22.542969 L 71.097656 19.828125 L 60.722656 19.828125 L 57.28125 26.082031 Z M 40.980469 29.03125 L 40.980469 25.808594 L 44.328125 19.921875 L 52.503906 19.921875 L 56.222656 25.996094 L 56.222656 29.09375 L 51.980469 29.09375 L 48.601563 23.609375 L 45.335938 29.03125 Z M 27.703125 19.921875 L 27.703125 22.929688 L 31.679688 22.929688 L 27.996094 29.183594 L 39.921875 29.183594 L 39.921875 26.128906 L 35.609375 26.128906 L 39.339844 19.972656 Z M 21.351563 19.972656 L 26.589844 19.972656 L 26.589844 29.136719 L 21.351563 29.136719 Z M 5.054688 19.984375 L 5.054688 23.203125 L 8.398438 29.089844 L 16.578125 29.089844 L 20.296875 23.019531 L 20.296875 19.921875 L 16.054688 19.921875 L 12.675781 25.40625 L 9.410156 19.980469 L 5.054688 19.984375 "/>
<path style=" stroke:none;fill-rule:nonzero;fill:rgb(0%,65.098572%,31.399536%);fill-opacity:1;" d="M 4.929688 34.367188 L 8.160156 34.367188 C 8.15625 34.597656 8.261719 34.75 8.488281 34.816406 C 8.648438 34.859375 8.859375 34.886719 9.109375 34.894531 C 9.363281 34.902344 10.167969 34.90625 11.511719 34.914063 C 12.921875 34.910156 13.773438 34.90625 14.054688 34.902344 C 14.339844 34.894531 14.5625 34.878906 14.726563 34.847656 C 14.972656 34.804688 15.097656 34.683594 15.097656 34.488281 C 15.097656 34.347656 15.007813 34.257813 14.835938 34.207031 C 14.660156 34.160156 14.308594 34.136719 13.773438 34.128906 C 13.359375 34.128906 12.492188 34.117188 11.160156 34.089844 C 9.796875 34.058594 8.910156 34.042969 8.496094 34.039063 C 7.695313 34.027344 7.078125 33.996094 6.648438 33.941406 C 6.21875 33.886719 5.882813 33.796875 5.644531 33.675781 C 5.230469 33.472656 5.023438 33.132813 5.023438 32.65625 C 5.023438 32.125 5.261719 31.75 5.730469 31.527344 C 6.089844 31.355469 6.640625 31.25 7.382813 31.203125 C 8.128906 31.15625 9.636719 31.128906 11.914063 31.128906 C 13.523438 31.128906 14.65625 31.152344 15.308594 31.191406 C 16.3125 31.25 17 31.371094 17.375 31.550781 C 17.75 31.734375 17.9375 32.039063 17.9375 32.46875 C 17.9375 32.507813 17.933594 32.582031 17.929688 32.691406 L 14.695313 32.691406 C 14.683594 32.558594 14.660156 32.46875 14.621094 32.417969 C 14.582031 32.371094 14.503906 32.332031 14.386719 32.300781 C 14.238281 32.265625 13.984375 32.242188 13.625 32.230469 C 13.261719 32.21875 12.492188 32.214844 11.3125 32.214844 C 9.894531 32.214844 9.03125 32.234375 8.722656 32.269531 C 8.414063 32.308594 8.257813 32.414063 8.257813 32.589844 C 8.257813 32.753906 8.414063 32.855469 8.722656 32.894531 C 8.980469 32.921875 10.15625 32.953125 12.261719 32.980469 C 14.027344 33.003906 15.210938 33.03125 15.808594 33.0625 C 16.40625 33.09375 16.878906 33.152344 17.230469 33.238281 C 17.632813 33.34375 17.914063 33.484375 18.082031 33.667969 C 18.246094 33.847656 18.328125 34.109375 18.328125 34.449219 C 18.328125 34.894531 18.191406 35.226563 17.914063 35.441406 C 17.707031 35.601563 17.414063 35.722656 17.042969 35.800781 C 16.671875 35.878906 16.148438 35.929688 15.472656 35.960938 C 14.75 35.984375 13.40625 36 11.441406 36 C 9.792969 36 8.578125 35.980469 7.792969 35.945313 C 7.007813 35.90625 6.417969 35.84375 6.019531 35.746094 C 5.609375 35.644531 5.324219 35.511719 5.164063 35.34375 C 5.007813 35.179688 4.929688 34.925781 4.929688 34.585938 Z M 18.84375 31.203125 L 32.09375 31.203125 L 32.09375 32.410156 L 27.222656 32.410156 L 27.222656 35.929688 L 23.71875 35.929688 L 23.71875 32.410156 L 18.84375 32.410156 Z M 32.863281 31.203125 L 44.988281 31.203125 L 44.988281 32.316406 L 36.148438 32.316406 L 36.148438 33 L 44.539063 33 L 44.539063 34.035156 L 36.148438 34.035156 L 36.148438 34.792969 L 45.050781 34.792969 L 45.050781 35.929688 L 32.863281 35.929688 Z M 46.09375 31.203125 L 58.21875 31.203125 L 58.21875 32.316406 L 49.382813 32.316406 L 49.382813 33 L 57.773438 33 L 57.773438 34.035156 L 49.382813 34.035156 L 49.382813 34.792969 L 58.285156 34.792969 L 58.285156 35.929688 L 46.09375 35.929688 Z M 59.328125 31.203125 L 62.832031 31.203125 L 62.832031 34.726563 L 70.617188 34.726563 L 70.617188 35.929688 L 59.328125 35.929688 L 59.328125 31.203125 "/>
<path style=" stroke:none;fill-rule:evenodd;fill:rgb(0%,65.098572%,31.399536%);fill-opacity:1;" d="M 23.914063 13.761719 C 25.390625 13.761719 26.589844 14.957031 26.589844 16.4375 C 26.589844 17.914063 25.390625 19.113281 23.914063 19.113281 C 22.4375 19.113281 21.238281 17.914063 21.238281 16.4375 C 21.238281 14.957031 22.4375 13.761719 23.914063 13.761719 "/>
<path style=" stroke:none;fill-rule:evenodd;fill:rgb(100%,100%,100%);fill-opacity:1;" d="M 22.394531 17.933594 L 23.800781 17.933594 L 23.800781 14.90625 L 24.046875 14.90625 L 24.046875 17.933594 L 25.453125 17.933594 L 25.453125 18.179688 L 22.394531 18.179688 Z M 22.394531 14.632813 L 25.453125 14.632813 L 25.453125 14.875 L 22.394531 14.875 L 22.394531 14.632813 "/>
<path style=" stroke:none;fill-rule:nonzero;fill:rgb(13.699341%,12.199402%,12.5%);fill-opacity:1;" d="M 6.832031 43.609375 L 6.832031 39.484375 L 10.398438 39.484375 C 11.101563 39.484375 11.558594 39.496094 11.761719 39.519531 C 12.277344 39.574219 12.628906 39.703125 12.808594 39.910156 C 12.992188 40.121094 13.082031 40.492188 13.082031 41.027344 C 13.082031 41.539063 13.007813 41.894531 12.855469 42.101563 C 12.753906 42.238281 12.613281 42.347656 12.429688 42.417969 C 12.246094 42.492188 11.996094 42.542969 11.679688 42.570313 C 11.453125 42.589844 11.03125 42.601563 10.414063 42.601563 L 8.417969 42.601563 L 8.417969 43.609375 Z M 8.417969 41.570313 L 10.402344 41.570313 C 10.761719 41.566406 10.980469 41.5625 11.0625 41.558594 C 11.144531 41.550781 11.214844 41.535156 11.277344 41.507813 C 11.359375 41.472656 11.414063 41.421875 11.445313 41.355469 C 11.476563 41.285156 11.492188 41.175781 11.492188 41.027344 C 11.492188 40.882813 11.472656 40.773438 11.433594 40.707031 C 11.398438 40.636719 11.328125 40.589844 11.230469 40.558594 C 11.160156 40.535156 10.882813 40.523438 10.402344 40.515625 L 8.417969 40.515625 Z M 13.550781 40.679688 L 14.851563 40.679688 L 14.851563 41.121094 L 14.917969 41.121094 C 15.050781 40.933594 15.222656 40.800781 15.441406 40.722656 C 15.65625 40.644531 15.960938 40.605469 16.351563 40.605469 C 16.90625 40.605469 17.292969 40.691406 17.511719 40.867188 C 17.730469 41.039063 17.839844 41.347656 17.839844 41.789063 C 17.839844 41.8125 17.839844 41.878906 17.835938 41.984375 L 16.53125 41.984375 C 16.53125 41.8125 16.511719 41.695313 16.464844 41.625 C 16.375 41.496094 16.15625 41.429688 15.804688 41.429688 C 15.476563 41.429688 15.242188 41.5 15.105469 41.644531 C 15.039063 41.714844 14.992188 41.800781 14.96875 41.902344 C 14.941406 42.007813 14.929688 42.171875 14.929688 42.394531 L 14.929688 43.609375 L 13.550781 43.609375 Z M 18.21875 40.679688 L 19.597656 40.679688 L 19.597656 43.609375 L 18.21875 43.609375 Z M 18.21875 39.484375 L 19.597656 39.484375 L 19.597656 40.308594 L 18.21875 40.308594 Z M 25.320313 39.484375 L 25.320313 43.609375 L 24.023438 43.609375 L 24.023438 43.226563 L 23.945313 43.226563 C 23.847656 43.359375 23.742188 43.453125 23.625 43.507813 C 23.371094 43.625 22.933594 43.683594 22.3125 43.683594 C 21.816406 43.683594 21.429688 43.664063 21.160156 43.617188 C 20.890625 43.570313 20.675781 43.488281 20.519531 43.375 C 20.367188 43.265625 20.261719 43.121094 20.207031 42.941406 C 20.148438 42.761719 20.121094 42.492188 20.121094 42.128906 C 20.121094 41.878906 20.136719 41.675781 20.167969 41.523438 C 20.199219 41.367188 20.253906 41.234375 20.328125 41.117188 C 20.476563 40.898438 20.726563 40.757813 21.09375 40.683594 C 21.359375 40.632813 21.769531 40.605469 22.328125 40.605469 C 22.8125 40.605469 23.160156 40.636719 23.371094 40.703125 C 23.582031 40.765625 23.75 40.890625 23.882813 41.074219 L 23.941406 41.074219 L 23.941406 39.484375 Z M 22.777344 41.429688 C 22.234375 41.429688 21.882813 41.472656 21.730469 41.554688 C 21.578125 41.636719 21.5 41.824219 21.5 42.113281 C 21.5 42.335938 21.523438 42.488281 21.570313 42.582031 C 21.613281 42.675781 21.699219 42.742188 21.824219 42.78125 C 21.988281 42.835938 22.28125 42.859375 22.695313 42.859375 C 23.207031 42.859375 23.550781 42.816406 23.71875 42.734375 C 23.804688 42.691406 23.863281 42.628906 23.898438 42.539063 C 23.929688 42.453125 23.949219 42.320313 23.949219 42.152344 C 23.949219 41.953125 23.925781 41.804688 23.878906 41.710938 C 23.835938 41.621094 23.753906 41.554688 23.636719 41.515625 C 23.46875 41.460938 23.183594 41.429688 22.777344 41.429688 Z M 29.4375 42.671875 L 30.8125 42.671875 C 30.773438 42.992188 30.652344 43.21875 30.445313 43.359375 C 30.269531 43.480469 30.015625 43.566406 29.691406 43.613281 C 29.367188 43.660156 28.878906 43.683594 28.226563 43.683594 C 27.691406 43.683594 27.28125 43.664063 26.992188 43.625 C 26.703125 43.582031 26.476563 43.511719 26.308594 43.410156 C 26.132813 43.304688 26.007813 43.160156 25.941406 42.984375 C 25.875 42.804688 25.84375 42.53125 25.84375 42.160156 C 25.84375 41.882813 25.855469 41.671875 25.882813 41.53125 C 25.90625 41.390625 25.957031 41.265625 26.027344 41.152344 C 26.175781 40.917969 26.441406 40.765625 26.828125 40.699219 C 27.160156 40.636719 27.671875 40.605469 28.367188 40.605469 C 28.984375 40.605469 29.417969 40.625 29.667969 40.65625 C 30.117188 40.71875 30.425781 40.851563 30.59375 41.054688 C 30.761719 41.257813 30.84375 41.601563 30.84375 42.085938 C 30.84375 42.132813 30.839844 42.230469 30.835938 42.382813 L 27.222656 42.382813 C 27.222656 42.53125 27.238281 42.640625 27.261719 42.703125 C 27.285156 42.765625 27.332031 42.820313 27.402344 42.863281 C 27.539063 42.945313 27.851563 42.984375 28.332031 42.984375 C 28.640625 42.984375 28.871094 42.972656 29.027344 42.957031 C 29.179688 42.9375 29.285156 42.90625 29.339844 42.859375 C 29.386719 42.824219 29.417969 42.761719 29.4375 42.671875 Z M 29.457031 41.785156 C 29.449219 41.671875 29.441406 41.589844 29.425781 41.546875 C 29.414063 41.503906 29.386719 41.464844 29.34375 41.429688 C 29.226563 41.335938 28.90625 41.285156 28.386719 41.285156 C 27.921875 41.285156 27.613281 41.316406 27.464844 41.382813 C 27.316406 41.445313 27.234375 41.582031 27.222656 41.785156 L 29.457031 41.785156 "/>
<path style=" stroke:none;fill-rule:nonzero;fill:rgb(13.699341%,12.199402%,12.5%);fill-opacity:1;" d="M 45.464844 42.242188 L 47 42.242188 C 46.996094 42.449219 47.046875 42.578125 47.15625 42.636719 C 47.230469 42.675781 47.332031 42.699219 47.449219 42.707031 C 47.570313 42.710938 47.953125 42.71875 48.59375 42.722656 C 49.265625 42.71875 49.667969 42.714844 49.800781 42.710938 C 49.9375 42.707031 50.042969 42.691406 50.121094 42.664063 C 50.238281 42.625 50.296875 42.523438 50.296875 42.351563 C 50.296875 42.230469 50.253906 42.148438 50.171875 42.105469 C 50.089844 42.066406 49.921875 42.042969 49.667969 42.039063 C 49.472656 42.039063 49.058594 42.027344 48.425781 42.003906 C 47.777344 41.976563 47.355469 41.964844 47.160156 41.960938 C 46.777344 41.949219 46.484375 41.921875 46.28125 41.875 C 46.078125 41.828125 45.914063 41.75 45.800781 41.644531 C 45.605469 41.464844 45.507813 41.167969 45.507813 40.753906 C 45.507813 40.289063 45.621094 39.960938 45.84375 39.769531 C 46.015625 39.617188 46.277344 39.523438 46.628906 39.484375 C 46.984375 39.441406 47.703125 39.421875 48.785156 39.421875 C 49.550781 39.421875 50.085938 39.4375 50.398438 39.472656 C 50.875 39.527344 51.203125 39.632813 51.382813 39.789063 C 51.558594 39.949219 51.648438 40.214844 51.648438 40.589844 C 51.648438 40.621094 51.648438 40.6875 51.644531 40.78125 L 50.105469 40.78125 C 50.101563 40.667969 50.089844 40.589844 50.070313 40.546875 C 50.050781 40.503906 50.015625 40.46875 49.957031 40.441406 C 49.890625 40.410156 49.769531 40.390625 49.597656 40.378906 C 49.421875 40.371094 49.058594 40.367188 48.496094 40.367188 C 47.824219 40.367188 47.414063 40.382813 47.265625 40.417969 C 47.121094 40.449219 47.046875 40.542969 47.046875 40.691406 C 47.046875 40.839844 47.121094 40.925781 47.265625 40.960938 C 47.390625 40.984375 47.949219 41.011719 48.949219 41.035156 C 49.789063 41.054688 50.351563 41.078125 50.636719 41.105469 C 50.917969 41.132813 51.144531 41.183594 51.3125 41.261719 C 51.503906 41.351563 51.636719 41.476563 51.714844 41.632813 C 51.796875 41.792969 51.835938 42.019531 51.835938 42.316406 C 51.835938 42.707031 51.769531 42.996094 51.636719 43.183594 C 51.539063 43.324219 51.398438 43.425781 51.222656 43.496094 C 51.046875 43.5625 50.796875 43.609375 50.476563 43.636719 C 50.132813 43.65625 49.492188 43.671875 48.558594 43.671875 C 47.777344 43.671875 47.199219 43.65625 46.824219 43.621094 C 46.453125 43.589844 46.167969 43.53125 45.980469 43.449219 C 45.785156 43.359375 45.652344 43.246094 45.574219 43.097656 C 45.5 42.957031 45.464844 42.734375 45.464844 42.4375 Z M 52.789063 40.007813 L 54.167969 40.007813 L 54.167969 40.679688 L 56.351563 40.679688 L 56.351563 41.464844 L 54.167969 41.464844 L 54.167969 42.316406 C 54.167969 42.546875 54.191406 42.691406 54.230469 42.75 C 54.300781 42.847656 54.460938 42.898438 54.71875 42.898438 C 54.984375 42.898438 55.152344 42.851563 55.214844 42.753906 C 55.238281 42.714844 55.253906 42.679688 55.261719 42.640625 C 55.265625 42.605469 55.265625 42.507813 55.265625 42.355469 L 56.527344 42.355469 C 56.523438 42.636719 56.503906 42.839844 56.464844 42.964844 C 56.429688 43.089844 56.355469 43.203125 56.25 43.308594 C 56.113281 43.449219 55.921875 43.546875 55.679688 43.601563 C 55.4375 43.65625 55.078125 43.683594 54.597656 43.683594 C 54.15625 43.683594 53.828125 43.664063 53.613281 43.628906 C 53.398438 43.589844 53.222656 43.519531 53.089844 43.414063 C 52.988281 43.335938 52.917969 43.253906 52.875 43.160156 C 52.832031 43.070313 52.804688 42.945313 52.796875 42.789063 C 52.789063 42.730469 52.789063 42.574219 52.789063 42.316406 L 52.789063 41.464844 L 52.058594 41.464844 L 52.058594 40.679688 L 52.789063 40.679688 Z M 60.449219 42.671875 L 61.828125 42.671875 C 61.789063 42.992188 61.664063 43.21875 61.460938 43.359375 C 61.28125 43.480469 61.03125 43.566406 60.703125 43.613281 C 60.378906 43.660156 59.890625 43.683594 59.238281 43.683594 C 58.703125 43.683594 58.292969 43.664063 58.003906 43.625 C 57.71875 43.582031 57.488281 43.511719 57.320313 43.410156 C 57.144531 43.304688 57.023438 43.160156 56.957031 42.984375 C 56.890625 42.804688 56.855469 42.53125 56.855469 42.160156 C 56.855469 41.882813 56.871094 41.671875 56.894531 41.53125 C 56.921875 41.390625 56.96875 41.265625 57.039063 41.152344 C 57.1875 40.917969 57.453125 40.765625 57.839844 40.699219 C 58.171875 40.636719 58.683594 40.605469 59.382813 40.605469 C 59.996094 40.605469 60.429688 40.625 60.683594 40.65625 C 61.128906 40.71875 61.4375 40.851563 61.605469 41.054688 C 61.773438 41.257813 61.855469 41.601563 61.855469 42.085938 C 61.855469 42.132813 61.851563 42.230469 61.847656 42.382813 L 58.238281 42.382813 C 58.238281 42.53125 58.25 42.640625 58.273438 42.703125 C 58.296875 42.765625 58.34375 42.820313 58.414063 42.863281 C 58.554688 42.945313 58.863281 42.984375 59.347656 42.984375 C 59.65625 42.984375 59.886719 42.972656 60.039063 42.957031 C 60.191406 42.9375 60.296875 42.90625 60.355469 42.859375 C 60.398438 42.824219 60.429688 42.761719 60.449219 42.671875 Z M 60.46875 41.785156 C 60.464844 41.671875 60.453125 41.589844 60.441406 41.546875 C 60.425781 41.503906 60.398438 41.464844 60.359375 41.429688 C 60.238281 41.335938 59.917969 41.285156 59.402344 41.285156 C 58.933594 41.285156 58.628906 41.316406 58.476563 41.382813 C 58.328125 41.445313 58.25 41.582031 58.238281 41.785156 Z M 65.863281 42.671875 L 67.242188 42.671875 C 67.203125 42.992188 67.078125 43.21875 66.875 43.359375 C 66.695313 43.480469 66.445313 43.566406 66.117188 43.613281 C 65.792969 43.660156 65.304688 43.683594 64.65625 43.683594 C 64.117188 43.683594 63.707031 43.664063 63.417969 43.625 C 63.132813 43.582031 62.902344 43.511719 62.734375 43.410156 C 62.558594 43.304688 62.4375 43.160156 62.371094 42.984375 C 62.304688 42.804688 62.273438 42.53125 62.273438 42.160156 C 62.273438 41.882813 62.285156 41.671875 62.308594 41.53125 C 62.335938 41.390625 62.382813 41.265625 62.453125 41.152344 C 62.601563 40.917969 62.867188 40.765625 63.253906 40.699219 C 63.585938 40.636719 64.097656 40.605469 64.796875 40.605469 C 65.410156 40.605469 65.84375 40.625 66.097656 40.65625 C 66.542969 40.71875 66.851563 40.851563 67.019531 41.054688 C 67.1875 41.257813 67.269531 41.601563 67.269531 42.085938 C 67.269531 42.132813 67.269531 42.230469 67.261719 42.382813 L 63.652344 42.382813 C 63.652344 42.53125 63.664063 42.640625 63.6875 42.703125 C 63.710938 42.765625 63.761719 42.820313 63.832031 42.863281 C 63.96875 42.945313 64.277344 42.984375 64.761719 42.984375 C 65.070313 42.984375 65.300781 42.972656 65.453125 42.957031 C 65.605469 42.9375 65.714844 42.90625 65.769531 42.859375 C 65.8125 42.824219 65.84375 42.761719 65.863281 42.671875 Z M 65.882813 41.785156 C 65.878906 41.671875 65.867188 41.589844 65.855469 41.546875 C 65.839844 41.503906 65.8125 41.464844 65.773438 41.429688 C 65.652344 41.335938 65.335938 41.285156 64.816406 41.285156 C 64.351563 41.285156 64.042969 41.316406 63.890625 41.382813 C 63.742188 41.445313 63.664063 41.582031 63.652344 41.785156 Z M 67.789063 39.484375 L 69.167969 39.484375 L 69.167969 43.609375 L 67.789063 43.609375 L 67.789063 39.484375 "/>
<path style=" stroke:none;fill-rule:nonzero;fill:rgb(13.699341%,12.199402%,12.5%);fill-opacity:1;" d="M 34.984375 44.300781 C 34.503906 44.300781 34.113281 44.195313 33.808594 43.988281 C 33.507813 43.78125 33.351563 43.515625 33.347656 43.1875 C 33.351563 43.113281 33.363281 43.027344 33.386719 42.925781 C 33.410156 42.824219 33.441406 42.730469 33.476563 42.644531 C 33.691406 42.136719 34.097656 41.695313 34.699219 41.3125 C 35.300781 40.933594 35.898438 40.742188 36.488281 40.742188 C 36.96875 40.742188 37.359375 40.847656 37.660156 41.050781 C 37.960938 41.257813 38.113281 41.527344 38.113281 41.855469 C 38.113281 41.929688 38.101563 42.019531 38.078125 42.121094 C 38.054688 42.226563 38.023438 42.320313 37.992188 42.40625 C 37.777344 42.910156 37.367188 43.351563 36.761719 43.730469 C 36.164063 44.109375 35.574219 44.300781 34.984375 44.300781 Z M 35.085938 44.0625 C 35.441406 44.0625 35.789063 43.914063 36.132813 43.621094 C 36.472656 43.328125 36.746094 42.941406 36.949219 42.460938 C 37.011719 42.308594 37.0625 42.164063 37.097656 42.023438 C 37.132813 41.882813 37.152344 41.757813 37.152344 41.652344 C 37.148438 41.441406 37.082031 41.277344 36.949219 41.15625 C 36.816406 41.039063 36.628906 40.980469 36.386719 40.980469 C 36.03125 40.980469 35.679688 41.128906 35.332031 41.421875 C 34.996094 41.714844 34.71875 42.105469 34.515625 42.589844 C 34.453125 42.738281 34.40625 42.886719 34.371094 43.027344 C 34.332031 43.164063 34.316406 43.285156 34.316406 43.390625 C 34.316406 43.601563 34.382813 43.765625 34.515625 43.882813 C 34.652344 44.003906 34.84375 44.0625 35.085938 44.0625 Z M 40.492188 41.160156 L 39.921875 42.9375 C 39.605469 43.90625 39.253906 44.617188 38.863281 45.066406 C 38.476563 45.515625 38.015625 45.738281 37.484375 45.738281 C 37.21875 45.738281 37.011719 45.699219 36.867188 45.625 C 36.722656 45.546875 36.648438 45.441406 36.648438 45.304688 C 36.648438 45.199219 36.691406 45.109375 36.773438 45.042969 C 36.855469 44.972656 36.960938 44.941406 37.089844 44.941406 C 37.273438 44.941406 37.402344 44.988281 37.480469 45.078125 C 37.554688 45.171875 37.546875 45.273438 37.457031 45.386719 C 37.429688 45.417969 37.425781 45.449219 37.449219 45.476563 C 37.46875 45.503906 37.511719 45.519531 37.574219 45.519531 C 37.835938 45.519531 38.054688 45.410156 38.222656 45.195313 C 38.390625 44.980469 38.566406 44.574219 38.757813 43.980469 L 39.695313 41.160156 L 38.65625 41.160156 L 38.746094 40.875 L 39.792969 40.875 C 40.011719 40.34375 40.253906 39.953125 40.523438 39.699219 C 40.859375 39.386719 41.316406 39.226563 41.894531 39.226563 C 42.175781 39.226563 42.394531 39.269531 42.554688 39.351563 C 42.714844 39.429688 42.792969 39.546875 42.792969 39.695313 C 42.792969 39.792969 42.753906 39.875 42.667969 39.933594 C 42.585938 39.996094 42.476563 40.027344 42.34375 40.027344 C 42.164063 40.027344 42.039063 39.980469 41.96875 39.890625 C 41.898438 39.800781 41.90625 39.691406 41.984375 39.5625 C 42.003906 39.53125 41.992188 39.507813 41.953125 39.484375 C 41.910156 39.460938 41.855469 39.449219 41.78125 39.449219 C 41.519531 39.449219 41.28125 39.59375 41.078125 39.882813 C 40.929688 40.097656 40.769531 40.429688 40.585938 40.875 L 41.808594 40.875 L 41.71875 41.160156 L 40.492188 41.160156 "/>
<path style=" stroke:none;fill-rule:evenodd;fill:rgb(13.699341%,12.199402%,12.5%);fill-opacity:1;" d="M 4.164063 37.527344 L 70.820313 37.527344 L 70.820313 38.105469 L 4.164063 38.105469 L 4.164063 37.527344 "/>
<path style=" stroke:none;fill-rule:nonzero;fill:rgb(13.699341%,12.199402%,12.5%);fill-opacity:1;" d="M 55.902344 16.144531 L 56.589844 16.144531 C 56.832031 16.144531 56.996094 16.117188 57.089844 16.0625 C 57.179688 16.011719 57.226563 15.914063 57.226563 15.78125 C 57.226563 15.644531 57.179688 15.546875 57.089844 15.492188 C 56.996094 15.441406 56.820313 15.414063 56.550781 15.414063 L 55.902344 15.414063 Z M 54.40625 18.375 L 54.40625 14.464844 L 56.664063 14.464844 C 57.371094 14.464844 57.875 14.554688 58.175781 14.726563 C 58.476563 14.902344 58.628906 15.191406 58.628906 15.589844 C 58.628906 15.828125 58.566406 16.027344 58.445313 16.183594 C 58.320313 16.34375 58.128906 16.46875 57.871094 16.558594 C 58.132813 16.605469 58.324219 16.695313 58.445313 16.832031 C 58.5625 16.964844 58.628906 17.164063 58.636719 17.425781 L 58.660156 17.96875 C 58.660156 17.972656 58.660156 17.976563 58.664063 17.984375 C 58.671875 18.140625 58.714844 18.21875 58.796875 18.226563 L 58.796875 18.375 L 57.273438 18.375 C 57.246094 18.28125 57.222656 18.199219 57.210938 18.128906 C 57.195313 18.058594 57.1875 18.003906 57.1875 17.964844 L 57.1875 17.574219 C 57.1875 17.375 57.140625 17.230469 57.042969 17.148438 C 56.949219 17.066406 56.78125 17.027344 56.546875 17.027344 L 55.902344 17.027344 L 55.902344 18.375 Z M 59.4375 18.375 L 59.4375 14.464844 L 60.980469 14.464844 L 60.980469 18.375 Z M 61.902344 18.375 L 61.902344 14.464844 L 63.335938 14.464844 L 64.660156 16.28125 C 64.699219 16.335938 64.742188 16.40625 64.789063 16.5 C 64.835938 16.59375 64.882813 16.707031 64.933594 16.839844 C 64.921875 16.773438 64.914063 16.695313 64.90625 16.613281 C 64.898438 16.527344 64.894531 16.429688 64.894531 16.308594 L 64.894531 14.464844 L 66.339844 14.464844 L 66.339844 18.375 L 64.894531 18.375 L 63.574219 16.570313 C 63.535156 16.515625 63.488281 16.441406 63.441406 16.34375 C 63.394531 16.246094 63.34375 16.136719 63.296875 16.011719 C 63.3125 16.078125 63.320313 16.152344 63.328125 16.226563 C 63.332031 16.300781 63.335938 16.40625 63.335938 16.542969 L 63.335938 18.375 Z M 67.234375 18.375 L 67.234375 14.464844 L 68.75 14.464844 L 68.75 17.335938 L 70.808594 17.335938 L 70.808594 18.375 L 67.234375 18.375 "/>
<path style=" stroke:none;fill-rule:nonzero;fill:rgb(13.699341%,12.199402%,12.5%);fill-opacity:1;" d="M 31.445313 15.292969 L 31.445313 14.890625 L 30.398438 14.890625 L 30.398438 15.292969 L 30.742188 15.292969 L 30.742188 16.25 C 30.601563 16.34375 30.417969 16.414063 30.335938 16.328125 C 30.230469 16.222656 30.023438 16.117188 30.019531 16.117188 C 30.171875 15.980469 30.238281 15.8125 30.238281 15.566406 C 30.238281 15.164063 29.980469 14.886719 29.648438 14.886719 C 29.210938 14.886719 28.9375 15.335938 28.929688 15.347656 L 29.203125 15.625 C 29.203125 15.601563 29.4375 15.28125 29.632813 15.28125 C 29.804688 15.28125 29.878906 15.445313 29.878906 15.625 C 29.867188 16.105469 29.402344 16.066406 29.390625 16.058594 L 29.519531 16.445313 C 29.554688 16.421875 30.070313 16.300781 30.0625 16.878906 C 30.0625 17.117188 29.972656 17.324219 29.769531 17.324219 C 29.398438 17.328125 29.074219 16.347656 29.078125 16.335938 L 28.746094 16.515625 C 28.746094 16.546875 29.144531 17.75 29.761719 17.742188 C 30.132813 17.742188 30.457031 17.382813 30.457031 16.894531 C 30.457031 16.804688 30.445313 16.746094 30.425781 16.660156 C 30.433594 16.667969 30.539063 16.714844 30.613281 16.710938 C 30.664063 16.710938 30.734375 16.667969 30.742188 16.660156 L 30.742188 17.941406 L 31.136719 17.941406 L 31.136719 15.292969 Z M 32.328125 15.292969 L 32.328125 14.890625 L 31.25 14.890625 L 31.25 15.292969 L 31.707031 15.292969 L 31.707031 17.941406 L 32.101563 17.941406 L 32.101563 15.292969 Z M 34.117188 15.292969 L 34.117188 14.890625 L 32.214844 14.890625 L 32.214844 15.292969 L 33.4375 15.292969 L 33.4375 15.96875 C 33.4375 15.980469 33.441406 16.191406 33.277344 16.203125 C 32.996094 16.226563 32.835938 15.6875 32.835938 15.679688 L 32.535156 15.9375 C 32.535156 15.945313 32.789063 16.480469 32.996094 16.878906 C 33.300781 17.457031 33.65625 17.960938 33.660156 17.972656 L 33.945313 17.660156 C 33.933594 17.652344 33.6875 17.324219 33.539063 17.089844 C 33.441406 16.925781 33.277344 16.601563 33.277344 16.59375 C 33.289063 16.59375 33.519531 16.613281 33.671875 16.460938 C 33.789063 16.347656 33.828125 16.148438 33.828125 16.039063 L 33.828125 15.292969 Z M 34.941406 17.960938 L 34.941406 17.382813 L 34.484375 17.382813 L 34.484375 17.960938 Z M 37.71875 15.292969 L 37.71875 14.890625 L 36.675781 14.890625 L 36.675781 15.292969 L 37.019531 15.292969 L 37.019531 16.25 C 36.878906 16.34375 36.691406 16.414063 36.609375 16.328125 C 36.507813 16.222656 36.296875 16.117188 36.292969 16.117188 C 36.449219 15.980469 36.515625 15.8125 36.515625 15.566406 C 36.515625 15.164063 36.257813 14.886719 35.921875 14.886719 C 35.488281 14.886719 35.210938 15.335938 35.207031 15.347656 L 35.480469 15.625 C 35.480469 15.601563 35.714844 15.28125 35.910156 15.28125 C 36.082031 15.28125 36.152344 15.445313 36.152344 15.625 C 36.144531 16.105469 35.679688 16.066406 35.664063 16.058594 L 35.796875 16.445313 C 35.832031 16.421875 36.34375 16.300781 36.339844 16.878906 C 36.339844 17.117188 36.25 17.324219 36.042969 17.324219 C 35.671875 17.328125 35.347656 16.347656 35.351563 16.335938 L 35.023438 16.515625 C 35.023438 16.546875 35.417969 17.75 36.035156 17.742188 C 36.40625 17.742188 36.734375 17.382813 36.734375 16.894531 C 36.734375 16.804688 36.71875 16.746094 36.703125 16.660156 C 36.710938 16.667969 36.816406 16.714844 36.886719 16.710938 C 36.941406 16.710938 37.007813 16.667969 37.019531 16.660156 L 37.019531 17.941406 L 37.410156 17.941406 L 37.410156 15.292969 Z M 38.601563 15.292969 L 38.601563 14.890625 L 37.523438 14.890625 L 37.523438 15.292969 L 37.984375 15.292969 L 37.984375 17.941406 L 38.378906 17.941406 L 38.378906 15.292969 Z M 40.59375 15.292969 L 40.59375 14.890625 L 38.488281 14.890625 L 38.488281 15.292969 L 39.847656 15.292969 L 39.847656 15.679688 L 39.109375 15.679688 C 38.992188 15.679688 38.867188 15.792969 38.867188 15.988281 C 38.867188 16.28125 39.199219 16.960938 39.589844 16.945313 C 39.753906 16.9375 40.007813 16.625 40.011719 17.023438 C 40.019531 17.574219 39.554688 17.550781 39.542969 17.53125 C 39.542969 17.527344 39.363281 17.203125 39.148438 17.203125 C 38.988281 17.203125 38.886719 17.335938 38.882813 17.515625 C 38.875 17.773438 39.074219 17.917969 39.273438 17.925781 C 39.339844 17.925781 39.441406 17.910156 39.445313 17.910156 C 39.542969 18.039063 39.609375 18.125 39.710938 18.238281 C 39.882813 18.429688 39.988281 18.539063 40.175781 18.695313 L 40.355469 18.304688 C 40.320313 18.28125 40.164063 18.164063 40.050781 18.070313 C 39.960938 17.996094 39.84375 17.875 39.824219 17.859375 C 39.855469 17.863281 40.40625 17.628906 40.410156 16.945313 C 40.414063 16.414063 40.136719 16.34375 39.835938 16.46875 C 39.550781 16.589844 39.503906 16.527344 39.34375 16.25 C 39.230469 16.046875 39.332031 16.054688 39.355469 16.054688 L 40.207031 16.054688 L 40.207031 15.292969 Z M 41.597656 17.960938 L 41.597656 17.382813 L 41.140625 17.382813 L 41.140625 17.960938 Z M 43.675781 15.292969 L 43.675781 14.890625 L 41.535156 14.890625 L 41.535156 15.292969 L 41.980469 15.292969 L 41.980469 16.824219 L 43.074219 18.046875 C 43.113281 18.089844 43.113281 18.171875 43.097656 18.238281 C 43.066406 18.394531 42.839844 18.371094 42.835938 18.371094 L 43.066406 18.652344 C 43.226563 18.683594 43.46875 18.492188 43.476563 18.203125 C 43.480469 18.035156 43.421875 17.917969 43.40625 17.90625 L 42.371094 16.738281 L 42.371094 15.292969 L 43.035156 15.292969 L 43.035156 16.25 C 43.035156 16.257813 43.042969 16.367188 42.964844 16.421875 C 42.910156 16.457031 42.808594 16.480469 42.800781 16.480469 L 43.066406 16.792969 C 43.117188 16.792969 43.226563 16.746094 43.332031 16.625 C 43.425781 16.515625 43.429688 16.347656 43.429688 16.335938 L 43.429688 15.292969 Z M 45.875 15.292969 L 45.875 14.890625 L 43.558594 14.890625 L 43.558594 15.292969 L 45.253906 15.292969 L 45.253906 15.949219 L 44.082031 15.949219 C 44.070313 15.949219 43.921875 15.957031 43.921875 16.15625 C 43.921875 16.300781 44.308594 16.96875 44.445313 16.972656 C 44.5625 16.980469 44.5625 16.792969 44.5625 16.78125 L 44.5625 16.378906 L 45.253906 16.378906 L 45.253906 17.941406 L 45.648438 17.941406 L 45.648438 15.292969 Z M 46.875 17.960938 L 46.875 17.382813 L 46.417969 17.382813 L 46.417969 17.960938 Z M 48.953125 15.292969 L 48.953125 14.890625 L 46.816406 14.890625 L 46.816406 15.292969 L 47.261719 15.292969 L 47.261719 16.824219 L 48.351563 18.046875 C 48.390625 18.089844 48.390625 18.171875 48.378906 18.238281 C 48.347656 18.394531 48.121094 18.371094 48.117188 18.371094 L 48.347656 18.652344 C 48.503906 18.683594 48.75 18.492188 48.753906 18.203125 C 48.757813 18.035156 48.699219 17.917969 48.6875 17.90625 L 47.648438 16.738281 L 47.648438 15.292969 L 48.316406 15.292969 L 48.316406 16.25 C 48.316406 16.257813 48.324219 16.367188 48.242188 16.421875 C 48.1875 16.457031 48.089844 16.480469 48.078125 16.480469 L 48.347656 16.792969 C 48.398438 16.792969 48.503906 16.746094 48.609375 16.625 C 48.703125 16.515625 48.710938 16.347656 48.710938 16.335938 L 48.710938 15.292969 Z M 51.601563 15.292969 L 51.601563 14.890625 L 48.839844 14.890625 L 48.839844 15.292969 L 50.980469 15.292969 L 50.980469 15.878906 C 50.972656 15.878906 50.820313 15.914063 50.722656 15.96875 C 50.648438 16.011719 50.597656 16.058594 50.535156 16.125 C 50.449219 15.992188 50.207031 15.792969 49.925781 15.792969 C 49.546875 15.792969 49.214844 16.199219 49.214844 16.710938 C 49.214844 17.53125 50.074219 17.980469 50.089844 17.980469 L 50.265625 17.582031 C 50.261719 17.582031 49.605469 17.261719 49.605469 16.691406 C 49.605469 16.433594 49.738281 16.203125 49.945313 16.199219 C 50.199219 16.183594 50.316406 16.40625 50.324219 16.433594 C 50.324219 16.4375 50.269531 16.539063 50.253906 16.601563 C 50.226563 16.683594 50.191406 16.8125 50.191406 16.828125 L 50.507813 17.011719 C 50.507813 16.980469 50.554688 16.734375 50.675781 16.535156 C 50.792969 16.335938 50.960938 16.289063 50.980469 16.28125 L 50.980469 17.941406 L 51.375 17.941406 L 51.375 15.292969 Z M 52.597656 17.960938 L 52.597656 17.382813 L 52.140625 17.382813 L 52.140625 17.960938 L 52.597656 17.960938 "/>
</g>
</svg>
